<svg width="37" height="36" viewBox="0 0 37 36" fill="none" xmlns="http://www.w3.org/2000/svg"><path d="M28.33 7.529a4.041 4.041 0 001.091-2.758c0-2.232-1.802-4.017-3.983-4.017-1.658 0-5.479 2.455-7.01 4.66C16.85 3.208 13.037.825 11.452.825 9.273.826 7.47 2.61 7.47 4.842A4 4 0 008.488 7.52H.774v9.604h2.109v18.618h31.125v-18.61h2.09V7.53h-7.767zm-2.9-5.284c1.351 0 2.477 1.116 2.477 2.606 0 1.259-.883 2.339-2.036 2.562h-6.1c-.388-.116-.514-.25-.514-.33.009-1.268 4.514-4.838 6.172-4.838zm-13.986 0c1.577 0 6.164 3.57 6.164 4.838 0 .116-.27.24-.46.33h-6.146C9.858 7.19 8.975 6.11 8.975 4.85c-.01-1.419 1.117-2.606 2.469-2.606zm2.478 32.007H4.379v-17.12h9.543v17.12zm0-18.53H2.279V9.028h11.652l-.01 6.694zm7.515 18.53h-6.01V9.019h6.01v25.233zm11.048 0h-9.543v-17.12h9.543v17.12zm2.1-18.53H22.942V9.028h11.652l-.01 6.694z" fill="#5F4B3C"/></svg>