<svg width="51" height="108" viewBox="0 0 51 108" fill="none" xmlns="http://www.w3.org/2000/svg"><path d="M33.531 32.898c0 8.4-3.75 11.1-9.9 11.1h-6.45v15h5.55c7.5 0 10.8 3.6 10.8 13.35v8.25c0 9.3-3.3 11.85-8.55 11.85-5.25 0-8.55-2.85-8.55-10.35v-9.75H.831v8.7c0 16.8 8.4 26.401 24.6 26.401 16.2 0 24.6-9.6 24.6-26.4v-8.25c0-10.65-3.3-18.45-11.55-22.05 7.95-3.3 11.55-10.35 11.55-21.6v-2.7c0-16.8-8.4-26.4-24.6-26.4-16.2 0-24.6 9.6-24.6 26.4v5.7h15.6v-6.75c0-7.5 3.3-10.35 8.55-10.35 5.25 0 8.55 2.55 8.55 12v5.85z" fill="#fff"/></svg>