<svg width="19" height="26" viewBox="0 0 19 26" fill="none" xmlns="http://www.w3.org/2000/svg"><path d="M19 26H.545v-3.873l8.5-8.66c2.096-2.312 3.143-4.149 3.143-5.51 0-1.103-.248-1.943-.744-2.518-.497-.575-1.217-.862-2.162-.862-.932 0-1.69.387-2.27 1.162-.582.762-.872 1.719-.872 2.869H0C0 7.035.406 5.586 1.217 4.26c.811-1.338 1.938-2.382 3.379-3.133C6.036.376 7.647 0 9.427 0c2.858 0 5.056.64 6.594 1.919 1.55 1.279 2.325 3.116 2.325 5.51a7.85 7.85 0 01-.581 2.957c-.388.95-.993 1.954-1.817 3.01-.811 1.044-2.125 2.447-3.941 4.207l-3.415 3.82H19V26z" fill="#CBA584"/></svg>