<svg width="19" height="26" viewBox="0 0 19 26" fill="none" xmlns="http://www.w3.org/2000/svg"><path d="M6.285 10.56h2.856c2.263 0 3.394-1.071 3.394-3.213 0-.834-.27-1.511-.808-2.032-.539-.533-1.3-.8-2.28-.8-.803 0-1.503.226-2.102.678-.587.452-.88 1.013-.88 1.685H.413c0-1.332.383-2.519 1.15-3.56C2.328 2.274 3.387 1.464 4.74.885 6.106.296 7.602 0 9.231 0c2.909 0 5.196.643 6.86 1.928 1.664 1.285 2.496 3.05 2.496 5.297 0 1.089-.347 2.119-1.042 3.092-.682.96-1.682 1.742-2.999 2.344 1.39.487 2.479 1.228 3.269 2.223.79.985 1.185 2.206 1.185 3.665 0 2.258-.898 4.064-2.694 5.419C14.51 25.323 12.152 26 9.231 26c-1.712 0-3.305-.313-4.777-.938-1.46-.637-2.568-1.51-3.323-2.623C.377 21.316 0 20.043 0 18.62h6.088c0 .775.323 1.447.97 2.014.646.568 1.442.851 2.388.851 1.066 0 1.916-.283 2.55-.85.635-.58.952-1.315.952-2.207 0-1.273-.33-2.176-.988-2.709-.658-.533-1.568-.799-2.73-.799H6.286v-4.36z" fill="#CBA584"/></svg>