<svg width="39" height="39" viewBox="0 0 39 39" fill="none" xmlns="http://www.w3.org/2000/svg"><path d="M32.563 5.896c-7.4-7.4-19.432-7.4-26.832 0a18.976 18.976 0 00-5.132 9.426 19.02 19.02 0 00.708 10.425.77.77 0 00.981.466.764.764 0 00.467-.981 17.332 17.332 0 01-.644-9.572 17.394 17.394 0 014.714-8.654C13.629.185 24.68.185 31.469 6.989a17.32 17.32 0 015.1 12.114 17.396 17.396 0 01-4.794 12.21l-.113.112c-.064.064-.128.145-.193.21-6.788 6.788-17.856 6.788-24.644 0-.033-.033-.065-.081-.113-.113v-.21c0-.16 0-.305.016-.466 0-.048 0-.097.016-.16 0-.097.016-.21.016-.306 0-.065.016-.13.016-.177.016-.097.016-.177.033-.274 0-.064.016-.129.032-.193.016-.08.016-.177.032-.257.016-.065.016-.13.032-.193.016-.08.032-.177.048-.258.016-.064.032-.128.032-.193l.049-.241.048-.193c.016-.08.032-.161.064-.241l.049-.194c.016-.08.048-.16.064-.24.016-.065.048-.13.064-.194.032-.08.049-.16.08-.225.017-.064.049-.129.065-.193.032-.08.048-.145.08-.225.033-.065.049-.129.08-.193.033-.08.065-.145.097-.226.033-.064.049-.128.08-.193.033-.08.065-.144.097-.225L8 25.86c.032-.064.064-.145.113-.209.032-.064.064-.129.096-.177.032-.064.08-.145.113-.21.032-.063.064-.112.096-.176.048-.064.08-.145.129-.21a1.12 1.12 0 01.112-.176c.049-.064.08-.129.13-.21.031-.064.08-.112.112-.16l.145-.193c.032-.048.08-.113.112-.161l.145-.193c.048-.048.08-.113.129-.16.048-.065.096-.13.16-.194.049-.048.08-.096.13-.16.047-.065.112-.13.16-.194.048-.048.08-.096.129-.145a.92.92 0 01.177-.177l.145-.144.176-.177.145-.145c.065-.064.129-.113.193-.177.049-.048.097-.08.145-.129.064-.064.129-.112.193-.16.048-.049.097-.081.145-.13l.209-.16c.048-.032.096-.08.145-.113.08-.048.145-.112.225-.16l.145-.097c.08-.064.16-.113.257-.177.048-.032.08-.064.129-.08.112-.065.225-.145.338-.21.016-.016.032-.016.048-.032.129-.08.257-.16.402-.225.048-.032.097-.048.145-.08.096-.049.177-.097.273-.145.065-.033.113-.065.177-.08.08-.033.145-.065.226-.113a7.557 7.557 0 005.212 2.09 7.557 7.557 0 005.212-2.09c2.734 1.27 4.97 3.539 6.177 6.29a.787.787 0 001.013.402.787.787 0 00.403-1.014c-1.336-3.024-3.636-5.437-6.564-6.885a7.464 7.464 0 001.303-4.23 7.545 7.545 0 00-7.544-7.545.772.772 0 00-.773.772c0 .418.354.772.773.772a6 6 0 016 6c0 1.48-.547 2.896-1.544 4.006a6.002 6.002 0 01-4.456 1.995 6.002 6.002 0 01-4.456-1.995 5.974 5.974 0 01-1.545-4.006c0-1.608.628-3.12 1.786-4.263a.767.767 0 000-1.093.767.767 0 00-1.094 0 7.147 7.147 0 00-2.349 5.34c0 1.512.45 2.992 1.303 4.231 0 0-.016 0-.016.016-.064.032-.112.065-.177.097-.096.048-.177.096-.273.145a1.191 1.191 0 00-.193.112c-.08.048-.177.097-.258.145-.064.032-.128.08-.193.112l-.24.145c-.065.049-.13.08-.194.129a1.95 1.95 0 00-.225.16 1.34 1.34 0 01-.193.13c-.08.048-.145.112-.225.16a1.709 1.709 0 00-.177.145c-.065.048-.145.113-.21.161-.064.048-.112.096-.176.145-.065.064-.13.112-.21.177-.064.048-.112.096-.177.16-.064.065-.128.113-.193.178-.064.048-.112.112-.16.16l-.193.194-.161.16c-.065.065-.129.129-.177.193-.049.049-.097.113-.145.161a2.038 2.038 0 00-.177.21c-.048.048-.097.112-.145.16-.064.08-.112.145-.177.225a1.127 1.127 0 00-.128.161c-.065.08-.13.161-.177.242-.033.048-.08.096-.113.144-.08.113-.145.21-.225.322a.281.281 0 01-.065.08c-.096.13-.177.274-.273.419a.633.633 0 00-.08.145c-.049.096-.113.177-.161.273-.033.064-.065.113-.097.177-.048.08-.096.177-.145.257l-.096.193c-.048.08-.08.161-.129.258-.032.064-.064.128-.096.209-.033.08-.08.16-.113.241a1.117 1.117 0 00-.08.21 3.62 3.62 0 00-.097.257c-.032.064-.048.145-.08.209a3.62 3.62 0 00-.097.257c-.032.065-.048.145-.08.21-.033.08-.065.176-.08.257-.017.08-.049.145-.065.225-.032.08-.048.177-.08.257-.017.08-.049.145-.065.226-.016.096-.048.177-.064.273-.016.08-.032.145-.049.225a1.682 1.682 0 01-.064.274c-.016.08-.032.145-.048.225a9.196 9.196 0 01-.048.273c-.016.08-.033.145-.033.226a1.775 1.775 0 00-.032.29c-.016.064-.016.144-.032.208-.016.097-.016.21-.032.306 0 .064-.016.129-.016.21-.016.112-.016.224-.016.337 0 .064 0 .113-.016.177 0 .177-.016.338-.016.515 0 .193 0 .37.016.563 0 .048.016.096.016.128v.017c.016.048.016.08.032.128v.016c.016.032.032.08.064.113 0 0 0 .016.016.016.016.032.049.064.08.096l.097.113.242.241c3.7 3.7 8.558 5.55 13.416 5.55 4.858 0 9.716-1.85 13.416-5.55l.241-.24.097-.114a18.816 18.816 0 005.212-13.287 18.756 18.756 0 00-5.534-13.24z" fill="#5F4B3C"/></svg>