<svg width="33" height="40" viewBox="0 0 33 40" fill="none" xmlns="http://www.w3.org/2000/svg"><path fill-rule="evenodd" clip-rule="evenodd" d="M26.79 10.085h5.182c.466 0 .847.399.847.886V35.31c0 2.447-1.897 4.433-4.234 4.433H4.878c-2.337 0-4.233-1.986-4.233-4.433V10.963c0-.32.169-.612.431-.772a.828.828 0 01.856.018l1.032.656a2.44 2.44 0 002.634 0l1.041-.656c.004 0 .006-.002.009-.005.002-.002.004-.004.008-.004a.18.18 0 01.042-.027l.017-.007a.044.044 0 00.017-.01.143.143 0 01.021-.01.145.145 0 00.022-.008.063.063 0 01.033-.018.058.058 0 00.022-.004.06.06 0 01.02-.005.06.06 0 00.022-.004c.006-.002.013-.005.021-.005l.017-.004.017-.004a.098.098 0 00.025-.005.103.103 0 01.026-.004h1.541V7.709c0-4.052 3.15-7.35 7.019-7.35.736 0 1.448.124 2.117.345A6.72 6.72 0 0119.77.358c3.87 0 7.02 3.299 7.02 7.35v2.377zm-1.693 0V7.709c0-2.962-2.201-5.382-4.987-5.568 1.499 1.347 2.447 3.342 2.447 5.568v2.376h2.54zm-10.66-2.376v2.376h6.418V7.709c0-2.297-1.32-4.265-3.209-5.125-1.888.86-3.209 2.837-3.209 5.125zm.754-5.568c-2.786.186-4.987 2.615-4.987 5.568v2.376h2.54V7.709c0-2.226.957-4.22 2.447-5.568zM2.338 12.53v22.787c0 1.463 1.143 2.66 2.54 2.66h2.201a4.558 4.558 0 01-.846-2.66V12.532a4.051 4.051 0 01-3.895 0zm26.247 25.447c1.398 0 2.54-1.197 2.54-2.66v-23.46H26.8v6.313c0 .487-.381.886-.847.886-.465 0-.846-.399-.846-.886v-6.313h-3.243a3.567 3.567 0 00-.02.003.637.637 0 01-.124.015.718.718 0 01-.144-.018h-7.13v6.313c0 .487-.38.886-.846.886-.466 0-.847-.399-.847-.886v-6.313H9.51a3.004 3.004 0 00-.019.003.637.637 0 01-.124.015.719.719 0 01-.144-.018H7.926v23.46c0 1.463 1.143 2.66 2.54 2.66h18.119zm-9.694-11.996l3.471-3.636a.826.826 0 011.203 0c.33.346.33.905 0 1.25l-4.073 4.265a.854.854 0 01-.601.258.828.828 0 01-.601-.266l-2.287-2.412a.913.913 0 01.009-1.25.817.817 0 011.194.009l1.685 1.782z" fill="#5F4B3C"/></svg>