<svg width="104" height="168" viewBox="0 0 104 168" fill="none" xmlns="http://www.w3.org/2000/svg"><circle cx="93.235" cy="98.043" r="10.699" transform="rotate(90 93.235 98.043)" fill="#A9E4FF"/><circle cx="65.723" cy="98.043" r="10.699" transform="rotate(90 65.723 98.043)" fill="#A9E4FF"/><circle cx="93.235" cy="69" r="10.699" transform="rotate(90 93.235 69)" fill="#A9E4FF"/><circle cx="65.801" cy="10.699" r="10.699" transform="rotate(90 65.801 10.699)" fill="#A9E4FF"/><circle cx="66.41" cy="156.402" r="10.699" transform="rotate(90 66.41 156.402)" fill="#A9E4FF"/><circle cx="93.235" cy="127.14" r="10.699" transform="rotate(90 93.235 127.14)" fill="#A9E4FF"/><circle cx="10.934" cy="127.14" r="10.699" transform="rotate(90 10.934 127.14)" fill="#A9E4FF"/><circle cx="93.235" cy="39.961" r="10.699" transform="rotate(90 93.235 39.96)" fill="#A9E4FF"/><circle cx="10.934" cy="39.961" r="10.699" transform="rotate(90 10.934 39.96)" fill="#A9E4FF"/><circle cx="38.977" cy="10.699" r="10.699" transform="rotate(90 38.977 10.699)" fill="#A9E4FF"/><circle cx="38.367" cy="155.183" r="10.699" transform="rotate(90 38.367 155.183)" fill="#A9E4FF"/><circle cx="38.211" cy="98.043" r="10.699" transform="rotate(90 38.211 98.043)" fill="#A9E4FF"/><circle cx="65.723" cy="69" r="10.699" transform="rotate(90 65.723 69)" fill="#A9E4FF"/><circle cx="65.723" cy="39.961" r="10.699" transform="rotate(90 65.723 39.96)" fill="#A9E4FF"/><circle cx="38.289" cy="39.961" r="10.699" transform="rotate(90 38.29 39.96)" fill="#A9E4FF"/><circle cx="65.879" cy="127.14" r="10.699" transform="rotate(90 65.88 127.14)" fill="#A9E4FF"/><circle cx="38.446" cy="127.14" r="10.699" transform="rotate(90 38.446 127.14)" fill="#A9E4FF"/><circle cx="10.699" cy="98.043" r="10.699" transform="rotate(90 10.7 98.043)" fill="#A9E4FF"/><circle cx="38.211" cy="69" r="10.699" transform="rotate(90 38.211 69)" fill="#A9E4FF"/><circle cx="10.699" cy="69" r="10.699" transform="rotate(90 10.7 69)" fill="#A9E4FF"/></svg>