<svg width="1920" height="300" viewBox="0 0 1920 300" fill="none" xmlns="http://www.w3.org/2000/svg"><mask id="mask0" maskUnits="userSpaceOnUse" x="0" y="0" width="1920" height="300"><path fill="#3F6539" d="M0 0h1920v300H0z"/></mask><g mask="url(#mask0)" fill="#A9E4FF"><ellipse cx="112.5" cy="-.063" rx="17.5" ry="17.55"/><ellipse cx="112.5" cy="45.066" rx="17.5" ry="17.55"/><ellipse cx="65" cy="-.063" rx="17.5" ry="17.55"/><ellipse cx="112.5" cy="90.195" rx="17.5" ry="17.55"/><ellipse cx="65" cy="45.066" rx="17.5" ry="17.55"/><ellipse cx="112.5" cy="135.323" rx="17.5" ry="17.55"/><ellipse cx="65" cy="90.195" rx="17.5" ry="17.55"/><ellipse cx="112.5" cy="180.448" rx="17.5" ry="17.55"/><ellipse cx="65" cy="135.323" rx="17.5" ry="17.55"/><ellipse cx="1823.76" cy="203.5" rx="17.54" ry="17.5"/><ellipse cx="1823.76" cy="248.5" rx="17.54" ry="17.5"/><ellipse cx="1776.15" cy="203.5" rx="17.54" ry="17.5"/><ellipse cx="1823.76" cy="293.5" rx="17.54" ry="17.5"/><ellipse cx="1776.15" cy="248.5" rx="17.54" ry="17.5"/><ellipse cx="1728.54" cy="248.5" rx="17.54" ry="17.5"/><ellipse cx="1728.54" cy="293.371" rx="17.54" ry="17.5"/><ellipse cx="1871.46" cy="248.242" rx="17.54" ry="17.5"/><ellipse cx="1871.46" cy="293.117" rx="17.54" ry="17.5"/><ellipse cx="1776.15" cy="293.5" rx="17.54" ry="17.5"/></g></svg>