<svg width="250" height="251" viewBox="0 0 250 251" fill="none" xmlns="http://www.w3.org/2000/svg"><circle cx="125" cy="125.543" r="125" fill="#fff" fill-opacity=".3"/><circle cx="125" cy="125.543" r="118.171" fill="#fff" fill-opacity=".3" stroke="#FF7000" stroke-width="4"/><path d="M122.545 104.238c0 5.415-1.97 10.156-5.425 13.544-3.454 3.387-8.435 5.462-14.534 5.462-6.035 0-10.986-2.074-14.426-5.461-3.44-3.388-5.41-8.13-5.41-13.545 0-10.92 7.835-19.488 19.836-19.488 12.126 0 19.959 8.572 19.959 19.488zm-26.5 60.566l50.924-78.85h7.471l-51.043 78.85h-7.351zm71.205-17.681c0 10.779-7.937 19.127-19.958 19.127-12.016 0-19.837-8.343-19.837-19.127 0-10.919 7.836-19.488 19.837-19.488 12.007 0 19.958 8.575 19.958 19.488zm-75.037-42.885c0 3.3 1.094 6.083 2.963 8.046 1.87 1.964 4.476 3.064 7.41 3.064 2.992 0 5.601-1.097 7.459-3.066 1.855-1.966 2.915-4.75 2.915-8.044 0-3.522-1.052-6.398-2.911-8.4-1.863-2.008-4.477-3.071-7.463-3.071-2.928 0-5.539 1.066-7.414 3.068-1.873 2-2.959 4.875-2.959 8.403zm44.706 42.885c0 3.408 1.055 6.225 2.914 8.195 1.862 1.973 4.473 3.036 7.459 3.036 2.984 0 5.623-1.062 7.514-3.031s2.981-4.785 2.981-8.2c0-3.47-1.087-6.344-2.974-8.358-1.89-2.016-4.53-3.113-7.521-3.113-2.993 0-5.605 1.098-7.465 3.118-1.856 2.015-2.908 4.889-2.908 8.353z" fill="#FF7000" stroke="#fff" stroke-width="1.5"/></svg>