<svg width="250" height="251" viewBox="0 0 250 251" fill="none" xmlns="http://www.w3.org/2000/svg"><circle cx="125" cy="125.543" r="125" fill="#fff" fill-opacity=".3"/><circle cx="125" cy="125.543" r="118.171" fill="#fff" fill-opacity=".3" stroke="#FF7000" stroke-width="4"/><path d="M152.455 95.798a11.21 11.21 0 003.026-7.653c0-6.192-5.001-11.145-11.052-11.145-4.601 0-15.203 6.81-19.454 12.928-4.376-6.117-14.953-12.73-19.354-12.73-6.051 0-11.052 4.954-11.052 11.145a11.1 11.1 0 002.825 7.43H75.99v26.649h5.852v51.663h86.366v-51.638h5.801v-26.65h-21.554zm-8.051-14.662c3.75 0 6.876 3.096 6.876 7.232 0 3.492-2.451 6.489-5.651 7.108h-16.928c-1.076-.322-1.426-.694-1.426-.916.025-3.517 12.528-13.424 17.129-13.424zm-38.808 0c4.376 0 17.103 9.907 17.103 13.424 0 .322-.75.668-1.275.916h-17.053c-3.176-.62-5.626-3.616-5.626-7.108-.025-3.938 3.1-7.232 6.851-7.232zm6.876 88.813h-26.48v-47.502h26.48v47.502zm0-51.415H80.166V99.959h32.331l-.025 18.575zm20.854 51.415h-16.678V99.934h16.678v70.015zm30.656 0h-26.48v-47.502h26.48v47.502zm5.827-51.415h-32.307V99.959h32.332l-.025 18.575z" fill="#FF7000"/></svg>