<svg width="250" height="251" viewBox="0 0 250 251" fill="none" xmlns="http://www.w3.org/2000/svg"><mask id="mask0" maskUnits="userSpaceOnUse" x="0" y="0" width="250" height="251"><circle cx="125" cy="125.543" r="125" fill="#E7E7E7"/></mask><g mask="url(#mask0)"><circle cx="125" cy="125.543" r="125" fill="#fff" fill-opacity=".3"/><circle cx="125" cy="125.543" r="118.171" fill="#fff" fill-opacity=".3" stroke="#FF7000" stroke-width="4"/><path d="M160.542 174.087H89.459c-.376 0-.752 0-1.129-.368-.376-.367-.376-.735-.376-1.103l3.385-69.504c0-.736.752-1.471 1.505-1.471h64.313c.752 0 1.504.735 1.504 1.471l3.385 69.504c0 .368 0 .736-.376 1.103-.376.368-.752.368-1.128.368zm-69.579-2.942h68.074l-3.385-66.562H94.348l-3.385 66.562z" fill="#FF7000"/><path d="M141.361 110.466c-.752 0-1.504-.736-1.504-1.471v-14.71c0-8.091-6.77-14.343-14.668-14.343s-15.044 6.62-15.044 14.343v14.71c0 .735-.752 1.471-1.505 1.471-.752 0-1.504-.736-1.504-1.471v-14.71c0-9.562 7.898-17.285 18.053-17.285 9.778 0 17.677 7.723 17.677 17.284v14.711c0 .735-.753 1.471-1.505 1.471z" fill="#FF7000"/></g></svg>