<svg width="520" height="187" viewBox="0 0 520 187" fill="none" xmlns="http://www.w3.org/2000/svg"><path d="M41.484 112.191C23.324 109.223 9.62 100.7.369 86.624L21.53 71.54c6.408 9.153 14.003 14.447 22.787 15.883 4.046.661 7.407.248 10.082-1.24 2.691-1.587 4.295-3.96 4.81-7.117l.05-.296c.548-3.356-.505-6.213-3.16-8.572-2.555-2.343-6.547-3.958-11.975-4.845l-12.139-1.984-1.553-15.605L57.625 30.17 18.1 23.71 21.9.468l74.757 12.219-3.339 20.429-28.206 17.276C82.33 57.26 89.671 68.44 87.14 83.935l-.048.296c-1.694 10.362-6.807 18.089-15.34 23.179-8.434 5.107-18.523 6.7-30.267 4.781zm99.05 16.188c-14.31-2.339-25.019-9.358-32.124-21.057-7.09-11.798-9.401-25.247-6.933-40.347l.048-.296c2.468-15.1 8.99-27.105 19.566-36.015 10.592-9.01 23.043-12.345 37.353-10.006 14.31 2.338 25.01 9.407 32.1 21.205 7.106 11.7 9.425 25.099 6.957 40.198l-.049.297c-2.468 15.1-8.998 27.154-19.589 36.163-10.478 8.927-22.921 12.213-37.329 9.858zm-8.176-35.534c2.698 5.812 6.909 9.185 12.633 10.121 5.724.935 10.741-.93 15.05-5.596 4.309-4.666 7.141-11.144 8.496-19.434l.048-.296c1.371-8.39.716-15.538-1.966-21.448s-6.885-9.333-12.609-10.269c-5.625-.92-10.642.946-15.049 5.596-4.309 4.666-7.15 11.194-8.521 19.582l-.048.296c-1.371 8.389-.716 15.538 1.966 21.448zm71.943 43.829l16.937-103.626 83.344 13.622-3.968 24.278-54.922-8.976-2.588 15.84 49.74 8.13-3.702 22.649-49.74-8.13-2.686 16.432 55.662 9.097-3.993 24.426-84.084-13.742zm145.2 25.707c-15.1-2.468-26.199-8.335-33.297-17.601-7.098-9.267-9.357-21.795-6.776-37.585l9.509-58.178 29.015 4.742-9.412 57.586c-1.194 7.303-.419 13.104 2.323 17.402 2.857 4.216 7.247 6.808 13.168 7.776 6.02.984 10.999-.026 14.935-3.031 4.035-2.988 6.633-8.035 7.794-15.141l9.533-58.326 29.015 4.742-9.388 57.438c-2.645 16.186-8.914 27.574-18.807 34.164-9.777 6.508-22.315 8.512-37.612 6.012zm65.867 8.789l16.936-103.625 49 8.009c15.1 2.468 25.746 8.007 31.938 16.619 5.118 7.119 6.863 15.662 5.234 25.63l-.048.296c-2.5 15.297-11.348 24.794-26.544 28.492l18.819 40.161-33.012-5.396-15.744-34.795-12.731-2.08-5.129 31.383-28.719-4.694zm37.526-49.191l19.096 3.121c4.836.791 8.764.318 11.783-1.418 3.135-1.818 5.008-4.602 5.621-8.352l.049-.296c.661-4.047-.221-7.332-2.645-9.856-2.409-2.623-6.031-4.33-10.867-5.12l-18.948-3.097-4.089 25.018z" fill="#EE3124"/></svg>