<svg width="156" height="149" viewBox="0 0 156 149" fill="none" xmlns="http://www.w3.org/2000/svg"><path d="M77.999 45l1.609-2.532L77.998 45zm42.083 92.049a3 3 0 01-4.131-.967l-14.235-22.943a3 3 0 015.099-3.164l12.653 20.394 20.393-12.653a3 3 0 013.163 5.099l-22.942 14.234zM3 39.831a363.146 363.146 0 01-.945-2.847h.003a7.089 7.089 0 00.04-.013c.026-.01.063-.021.11-.036.093-.03.228-.074.403-.128a74.05 74.05 0 011.51-.449 111.12 111.12 0 015.547-1.423 131.595 131.595 0 0118.924-2.926c15.139-1.202 34.66.065 51.016 10.46l-3.218 5.063c-14.764-9.382-32.743-10.7-47.323-9.542a125.601 125.601 0 00-18.05 2.791c-2.245.518-4.03.998-5.245 1.346a65.177 65.177 0 00-1.806.545l-.017.006h-.003c.001 0 .002 0-.946-2.846zm76.608 2.637c27.566 17.518 38.087 40.68 41.652 59.473a93.929 93.929 0 011.429 23.556 78.447 78.447 0 01-.772 7.021 52.327 52.327 0 01-.341 1.933 47.14 47.14 0 01-.108.524l-.032.145-.01.042-.003.014-.001.005c-.001.001-.001.003-2.922-.681-2.921-.684-2.921-.683-2.922-.682v.001l.001-.001.004-.018.021-.095a45.86 45.86 0 00.387-2.126c.238-1.504.526-3.715.711-6.482.37-5.54.324-13.278-1.337-22.038-3.311-17.456-13.04-39.045-38.975-55.527l3.218-5.064z" fill="#fff"/></svg>