<svg width="102" height="139" viewBox="0 0 102 139" fill="none" xmlns="http://www.w3.org/2000/svg"><path d="M59.374 47.033l1.962-1.511-1.962 1.51zm6.724 83.274a2.476 2.476 0 01-2.933-1.914l-4.582-21.811a2.476 2.476 0 114.847-1.018l4.073 19.387 19.387-4.073a2.477 2.477 0 011.019 4.847l-21.811 4.582zM2.638 21.897c.067-2.476.068-2.476.07-2.476h.01a5.165 5.165 0 01.122.005c.08.003.198.007.348.015.302.014.74.038 1.298.076 1.119.078 2.725.216 4.706.459 3.958.483 9.432 1.385 15.507 3.06 12.085 3.331 26.874 9.813 36.637 22.486l-3.923 3.022C48.6 37.105 35.02 31.02 23.383 27.81A103.68 103.68 0 008.59 24.892a86.517 86.517 0 00-4.448-.434 54.041 54.041 0 00-1.555-.085H2.57l.068-2.476zm58.698 23.625C77.79 66.879 79.429 87.813 76.9 103.399a77.504 77.504 0 01-5.526 18.679 64.834 64.834 0 01-2.577 5.231 43.706 43.706 0 01-.81 1.404c-.097.162-.175.287-.23.375l-.066.104a1.259 1.259 0 00-.02.03l-.006.01-.002.003c-.001.001-.002.003-2.076-1.351a263.977 263.977 0 00-2.074-1.352l.008-.013.043-.068c.04-.064.103-.164.185-.301.165-.273.41-.689.715-1.239a59.97 59.97 0 002.377-4.829 72.538 72.538 0 005.17-17.476c2.349-14.477.88-33.968-14.6-54.062l3.924-3.022z" fill="#fff"/></svg>