<svg width="194" height="199" viewBox="0 0 194 199" fill="none" xmlns="http://www.w3.org/2000/svg"><path d="M189.41 153.864a2.478 2.478 0 00-.447-3.474l-17.643-13.618a2.477 2.477 0 00-3.026 3.921l15.682 12.105-12.105 15.682a2.476 2.476 0 103.921 3.026l13.618-17.642zM45.789 4a191.647 191.647 0 00-2.359-.755v.004a.61.61 0 00-.005.013l-.014.043c-.01.036-.027.087-.047.153a66.916 66.916 0 00-.747 2.724 105.013 105.013 0 00-1.661 7.97c-1.158 6.792-2.187 16.372-1.683 27.56 1.01 22.39 8.171 51.274 32.769 77.033l3.582-3.42C52.05 90.639 45.19 63.005 44.22 41.489c-.486-10.765.506-19.985 1.617-26.505.555-3.258 1.14-5.837 1.581-7.59a61.684 61.684 0 01.682-2.49l.036-.118.008-.025.002-.004L45.789 4zm26.253 114.745c21.773 22.801 50.803 31.769 74.178 35.078a183.574 183.574 0 0029.504 1.74c3.72-.084 6.713-.27 8.784-.437a100.527 100.527 0 003.025-.291l.167-.02a.857.857 0 01.046-.006l.013-.002h.004c.002 0 .003 0-.314-2.456l-.315-2.457h-.001l-.006.001-.032.004-.14.017a93.226 93.226 0 01-2.845.273c-1.985.16-4.882.341-8.496.422-7.232.162-17.314-.08-28.7-1.692-22.816-3.23-50.594-11.92-71.29-33.594l-3.582 3.42z" fill="#fff"/></svg>