<svg width="260" height="77" viewBox="0 0 260 77" fill="none" xmlns="http://www.w3.org/2000/svg"><path d="M254.966 3.048a3 3 0 00-3.418-2.514l-26.692 4.064a3 3 0 10.903 5.932l23.727-3.613 3.612 23.727a3 3 0 005.932-.903l-4.064-26.693zM3.5 3.5A265.115 265.115 0 00.865 4.934l.003.005a9.101 9.101 0 00.129.232c.082.146.201.356.359.626.315.54.782 1.321 1.403 2.308C4 10.08 5.859 12.878 8.35 16.228c4.983 6.697 12.515 15.614 22.74 24.533C51.552 58.609 82.85 76.5 126 76.5v-6c-41.351 0-71.303-17.11-90.965-34.26-9.839-8.582-17.087-17.165-21.87-23.593A121.242 121.242 0 017.837 4.91 75.024 75.024 0 016.54 2.775a40.52 40.52 0 01-.4-.703l-.003-.005s0 .002-2.636 1.433zm122.5 73c38.194 0 70.339-17.933 92.795-35.645 11.25-8.872 20.134-17.74 26.209-24.395a184.74 184.74 0 006.967-8.061 119.424 119.424 0 002.276-2.894l.122-.163.033-.045.01-.013.003-.004c.001-.001.001-.002-2.415-1.78l-2.416-1.779v.001a.038.038 0 00-.005.006l-.023.032-.103.136c-.093.124-.235.311-.425.558a110.14 110.14 0 01-1.716 2.163 178.627 178.627 0 01-6.738 7.798c-5.909 6.47-14.556 15.102-25.494 23.73C193.161 53.433 162.306 70.5 126 70.5v6z" fill="#fff"/></svg>