<?xml version="1.0" encoding="utf-8"?><svg viewBox="0 0 51 108" xmlns="http://www.w3.org/2000/svg" xmlns:xlink="http://www.w3.org/1999/xlink"><style>:root>svg{display:none}:root>svg:target{display:block}</style><svg fill="none" viewBox="0 0 31 105" id="1" xmlns="http://www.w3.org/2000/svg"><path d="M.932 24.9h12.75V105h16.5V0h-11.1c-2.55 7.05-5.4 13.2-18.15 13.2v11.7z" fill="#fff"/></svg><svg fill="none" viewBox="0 0 50 108" id="2" xmlns="http://www.w3.org/2000/svg"><path d="M33.431 27.939c0 30.3-32.7 35.4-32.7 66.3v12.9h47.7v-15h-31.2c-.15-.75-.15-1.5-.15-2.25 0-17.25 32.85-29.55 32.85-62.55 0-16.8-8.4-26.4-24.6-26.4-16.2 0-24.6 9.6-24.6 26.4v10.2h15.6v-11.25c0-7.5 3.3-10.35 8.55-10.35 5.25 0 8.55 2.55 8.55 12z" fill="#fff"/></svg><svg fill="none" viewBox="0 0 51 108" id="3" xmlns="http://www.w3.org/2000/svg"><path d="M33.531 32.898c0 8.4-3.75 11.1-9.9 11.1h-6.45v15h5.55c7.5 0 10.8 3.6 10.8 13.35v8.25c0 9.3-3.3 11.85-8.55 11.85-5.25 0-8.55-2.85-8.55-10.35v-9.75H.831v8.7c0 16.8 8.4 26.401 24.6 26.401 16.2 0 24.6-9.6 24.6-26.4v-8.25c0-10.65-3.3-18.45-11.55-22.05 7.95-3.3 11.55-10.35 11.55-21.6v-2.7c0-16.8-8.4-26.4-24.6-26.4-16.2 0-24.6 9.6-24.6 26.4v5.7h15.6v-6.75c0-7.5 3.3-10.35 8.55-10.35 5.25 0 8.55 2.55 8.55 12v5.85z" fill="#fff"/></svg><svg viewBox="0 0 19 26" fill="none" id="num1" xmlns="http://www.w3.org/2000/svg"><path d="M12 27H5.946V7.047L0 8.845V4.098L11.445 0H12v27z" fill="#CBA584"/></svg><svg fill="none" viewBox="0 0 19 26" id="num2" xmlns="http://www.w3.org/2000/svg"><path d="M19 26H.545v-3.873l8.5-8.66c2.096-2.312 3.143-4.149 3.143-5.51 0-1.103-.248-1.943-.744-2.518-.497-.575-1.217-.862-2.162-.862-.932 0-1.69.387-2.27 1.162-.582.762-.872 1.719-.872 2.869H0C0 7.035.406 5.586 1.217 4.26c.811-1.338 1.938-2.382 3.379-3.133C6.036.376 7.647 0 9.427 0c2.858 0 5.056.64 6.594 1.919 1.55 1.279 2.325 3.116 2.325 5.51a7.85 7.85 0 01-.581 2.957c-.388.95-.993 1.954-1.817 3.01-.811 1.044-2.125 2.447-3.941 4.207l-3.415 3.82H19V26z" fill="#CBA584"/></svg><svg fill="none" viewBox="0 0 19 26" id="num3" xmlns="http://www.w3.org/2000/svg"><path d="M6.285 10.56h2.856c2.263 0 3.394-1.071 3.394-3.213 0-.834-.27-1.511-.808-2.032-.539-.533-1.3-.8-2.28-.8-.803 0-1.503.226-2.102.678-.587.452-.88 1.013-.88 1.685H.413c0-1.332.383-2.519 1.15-3.56C2.328 2.274 3.387 1.464 4.74.885 6.106.296 7.602 0 9.231 0c2.909 0 5.196.643 6.86 1.928 1.664 1.285 2.496 3.05 2.496 5.297 0 1.089-.347 2.119-1.042 3.092-.682.96-1.682 1.742-2.999 2.344 1.39.487 2.479 1.228 3.269 2.223.79.985 1.185 2.206 1.185 3.665 0 2.258-.898 4.064-2.694 5.419C14.51 25.323 12.152 26 9.231 26c-1.712 0-3.305-.313-4.777-.938-1.46-.637-2.568-1.51-3.323-2.623C.377 21.316 0 20.043 0 18.62h6.088c0 .775.323 1.447.97 2.014.646.568 1.442.851 2.388.851 1.066 0 1.916-.283 2.55-.85.635-.58.952-1.315.952-2.207 0-1.273-.33-2.176-.988-2.709-.658-.533-1.568-.799-2.73-.799H6.286v-4.36z" fill="#CBA584"/></svg><svg fill="none" viewBox="0 0 39 39" id="step1" xmlns="http://www.w3.org/2000/svg"><path d="M32.563 5.896c-7.4-7.4-19.432-7.4-26.832 0a18.976 18.976 0 00-5.132 9.426 19.02 19.02 0 00.708 10.425.77.77 0 00.981.466.764.764 0 00.467-.981 17.332 17.332 0 01-.644-9.572 17.394 17.394 0 014.714-8.654C13.629.185 24.68.185 31.469 6.989a17.32 17.32 0 015.1 12.114 17.396 17.396 0 01-4.794 12.21l-.113.112c-.064.064-.128.145-.193.21-6.788 6.788-17.856 6.788-24.644 0-.033-.033-.065-.081-.113-.113v-.21c0-.16 0-.305.016-.466 0-.048 0-.097.016-.16 0-.097.016-.21.016-.306 0-.065.016-.13.016-.177.016-.097.016-.177.033-.274 0-.064.016-.129.032-.193.016-.08.016-.177.032-.257.016-.065.016-.13.032-.193.016-.08.032-.177.048-.258.016-.064.032-.128.032-.193l.049-.241.048-.193c.016-.08.032-.161.064-.241l.049-.194c.016-.08.048-.16.064-.24.016-.065.048-.13.064-.194.032-.08.049-.16.08-.225.017-.064.049-.129.065-.193.032-.08.048-.145.08-.225.033-.065.049-.129.08-.193.033-.08.065-.145.097-.226.033-.064.049-.128.08-.193.033-.08.065-.144.097-.225L8 25.86c.032-.064.064-.145.113-.209.032-.064.064-.129.096-.177.032-.064.08-.145.113-.21.032-.063.064-.112.096-.176.048-.064.08-.145.129-.21.032-.063.064-.112.112-.176.049-.064.08-.129.13-.21.031-.064.08-.112.112-.16l.145-.193c.032-.048.08-.113.112-.161l.145-.193c.048-.048.08-.113.129-.16.048-.065.096-.13.16-.194.049-.048.08-.096.13-.16.047-.065.112-.13.16-.194.048-.048.08-.096.129-.145a.92.92 0 01.177-.177l.145-.144.176-.177.145-.145c.065-.064.129-.113.193-.177.049-.048.097-.08.145-.129.064-.064.129-.112.193-.16.048-.049.097-.081.145-.13l.209-.16c.048-.032.096-.08.145-.113.08-.048.145-.112.225-.16l.145-.097c.08-.064.16-.113.257-.177.048-.032.08-.064.129-.08.112-.065.225-.145.338-.21.016-.016.032-.016.048-.032.129-.08.257-.16.402-.225.048-.032.097-.048.145-.08.096-.049.177-.097.273-.145.065-.033.113-.065.177-.08.08-.033.145-.065.226-.113a7.557 7.557 0 005.212 2.09 7.557 7.557 0 005.212-2.09c2.734 1.27 4.97 3.539 6.177 6.29a.787.787 0 001.013.402.787.787 0 00.403-1.014c-1.336-3.024-3.636-5.437-6.564-6.885a7.464 7.464 0 001.303-4.23 7.545 7.545 0 00-7.544-7.545.772.772 0 00-.773.772c0 .418.354.772.773.772a6 6 0 016 6c0 1.48-.547 2.896-1.544 4.006a6.002 6.002 0 01-4.456 1.995 6.002 6.002 0 01-4.456-1.995 5.974 5.974 0 01-1.545-4.006c0-1.608.628-3.12 1.786-4.263a.767.767 0 000-1.093.767.767 0 00-1.094 0 7.147 7.147 0 00-2.349 5.34c0 1.512.45 2.992 1.303 4.231 0 0-.016 0-.016.016-.064.032-.112.065-.177.097-.096.048-.177.096-.273.145a1.191 1.191 0 00-.193.112c-.08.048-.177.097-.258.145-.064.032-.128.08-.193.112l-.24.145c-.065.049-.13.08-.194.129a1.95 1.95 0 00-.225.16 1.34 1.34 0 01-.193.13c-.08.048-.145.112-.225.16a1.709 1.709 0 00-.177.145c-.065.048-.145.113-.21.161-.064.048-.112.096-.176.145-.065.064-.13.112-.21.177-.064.048-.112.096-.177.16-.064.065-.128.113-.193.178-.064.048-.112.112-.16.16l-.193.194-.161.16c-.065.065-.129.129-.177.193-.049.049-.097.113-.145.161a2.038 2.038 0 00-.177.21c-.048.048-.097.112-.145.16-.064.08-.112.145-.177.225a1.127 1.127 0 00-.128.161c-.065.08-.13.161-.177.242-.033.048-.08.096-.113.144-.08.113-.145.21-.225.322a.281.281 0 01-.065.08c-.096.13-.177.274-.273.419-.032.048-.064.096-.08.145-.049.096-.113.177-.161.273-.033.064-.065.113-.097.177-.048.08-.096.177-.145.257l-.096.193c-.048.08-.08.161-.129.258-.032.064-.064.128-.096.209-.033.08-.08.16-.113.241a1.117 1.117 0 00-.08.21c-.033.08-.065.16-.097.257-.032.064-.048.145-.08.209-.033.08-.065.16-.097.257-.032.065-.048.145-.08.21-.033.08-.065.176-.08.257-.017.08-.049.145-.065.225-.032.08-.048.177-.08.257-.017.08-.049.145-.065.226-.016.096-.048.177-.064.273-.016.08-.032.145-.049.225a1.682 1.682 0 01-.064.274c-.016.08-.032.145-.048.225a9.196 9.196 0 01-.048.273c-.016.08-.033.145-.033.226-.016.096-.032.193-.032.29-.016.064-.016.144-.032.208-.016.097-.016.21-.032.306 0 .064-.016.129-.016.21-.016.112-.016.224-.016.337 0 .064 0 .113-.016.177 0 .177-.016.338-.016.515 0 .193 0 .37.016.563 0 .048.016.096.016.128v.017c.016.048.016.08.032.128v.016c.016.032.032.08.064.113 0 0 0 .016.016.016.016.032.049.064.08.096l.097.113.242.241c3.7 3.7 8.558 5.55 13.416 5.55 4.858 0 9.716-1.85 13.416-5.55l.241-.24.097-.114a18.816 18.816 0 005.212-13.287 18.756 18.756 0 00-5.534-13.24z" fill="#5F4B3C"/></svg><svg fill="none" viewBox="0 0 33 40" id="step2" xmlns="http://www.w3.org/2000/svg"><path fill-rule="evenodd" clip-rule="evenodd" d="M26.79 10.085h5.182c.466 0 .847.399.847.886V35.31c0 2.447-1.897 4.433-4.234 4.433H4.878c-2.337 0-4.233-1.986-4.233-4.433V10.963c0-.32.169-.612.431-.772.271-.15.593-.15.856.018l1.032.656a2.44 2.44 0 002.634 0l1.041-.656c.004 0 .006-.002.009-.005.002-.002.004-.004.008-.004a.18.18 0 01.042-.027l.017-.007a.044.044 0 00.017-.01.143.143 0 01.021-.01.145.145 0 00.022-.008.063.063 0 01.033-.018.058.058 0 00.022-.004.06.06 0 01.02-.005.06.06 0 00.022-.004c.006-.002.013-.005.021-.005l.017-.004.017-.004a.098.098 0 00.025-.005.103.103 0 01.026-.004h1.541V7.709c0-4.052 3.15-7.35 7.019-7.35.736 0 1.448.124 2.117.345A6.72 6.72 0 0119.77.358c3.87 0 7.02 3.299 7.02 7.35v2.377zm-1.693 0V7.709c0-2.962-2.201-5.382-4.987-5.568 1.499 1.347 2.447 3.342 2.447 5.568v2.376h2.54zm-10.66-2.376v2.376h6.418V7.709c0-2.297-1.32-4.265-3.209-5.125-1.888.86-3.209 2.837-3.209 5.125zm.754-5.568c-2.786.186-4.987 2.615-4.987 5.568v2.376h2.54V7.709c0-2.226.957-4.22 2.447-5.568zM2.338 12.53v22.787c0 1.463 1.143 2.66 2.54 2.66h2.201a4.558 4.558 0 01-.846-2.66V12.532a4.051 4.051 0 01-3.895 0zm26.247 25.447c1.398 0 2.54-1.197 2.54-2.66v-23.46H26.8v6.313c0 .487-.381.886-.847.886-.465 0-.846-.399-.846-.886v-6.313h-3.243a3.567 3.567 0 00-.02.003c-.042.008-.08.015-.124.015a.718.718 0 01-.144-.018h-7.13v6.313c0 .487-.38.886-.846.886-.466 0-.847-.399-.847-.886v-6.313H9.51a3.004 3.004 0 00-.019.003c-.042.008-.08.015-.124.015a.719.719 0 01-.144-.018H7.926v23.46c0 1.463 1.143 2.66 2.54 2.66h18.119zm-9.694-11.996l3.471-3.636a.826.826 0 011.203 0c.33.346.33.905 0 1.25l-4.073 4.265a.854.854 0 01-.601.258.828.828 0 01-.601-.266l-2.287-2.412a.913.913 0 01.009-1.25.817.817 0 011.194.009l1.685 1.782z" fill="#5F4B3C"/></svg><svg fill="none" viewBox="0 0 37 36" id="step3" xmlns="http://www.w3.org/2000/svg"><path d="M28.33 7.529a4.041 4.041 0 001.091-2.758c0-2.232-1.802-4.017-3.983-4.017-1.658 0-5.479 2.455-7.01 4.66C16.85 3.208 13.037.825 11.452.825 9.273.826 7.47 2.61 7.47 4.842A4 4 0 008.488 7.52H.774v9.604h2.109v18.618h31.125v-18.61h2.09V7.53h-7.767zm-2.9-5.284c1.351 0 2.477 1.116 2.477 2.606 0 1.259-.883 2.339-2.036 2.562h-6.1c-.388-.116-.514-.25-.514-.33.009-1.268 4.514-4.838 6.172-4.838zm-13.986 0c1.577 0 6.164 3.57 6.164 4.838 0 .116-.27.24-.46.33h-6.146C9.858 7.19 8.975 6.11 8.975 4.85c-.01-1.419 1.117-2.606 2.469-2.606zm2.478 32.007H4.379v-17.12h9.543v17.12zm0-18.53H2.279V9.028h11.652l-.01 6.694zm7.515 18.53h-6.01V9.019h6.01v25.233zm11.048 0h-9.543v-17.12h9.543v17.12zm2.1-18.53H22.942V9.028h11.652l-.01 6.694z" fill="#5F4B3C"/></svg></svg>