<svg width="249" height="24" viewBox="0 0 249 24" fill="none" xmlns="http://www.w3.org/2000/svg"><path d="M248.277 1.358h-189.9v-.54l.361.45s-.361.27-.903.81C56.117 3.61 52.23 7.03 49.97 10.002a41.636 41.636 0 00-4.338 7.112c-.452.99-.814 1.71-.995 2.25l-.27.81-.995 2.882-.09-3.061v-.9c0-2.071.09-7.473 1.355-11.524.995-3.15 3.345-7.112 3.345-7.112l.452.27v.54H.53V.188h48.808l-.452.81s-.542.99-1.265 2.34C46.898 4.69 46.085 6.4 45.633 7.93c-1.175 3.871-1.356 9.183-1.356 11.254v.81h-.543l-.542-.18s1.718-5.132 5.785-10.533C52.14 5.139 57.925.368 57.925.368l.18-.09h190.082v1.08h.09z" fill="#AB8E77"/></svg>